<svg width="748" height="197" viewBox="0 0 748 197" fill="none" xmlns="http://www.w3.org/2000/svg">
<path d="M332.69 106.007H312.458L276.004 46.1074V106.007H257.084V15.0156H277.322L313.775 74.9788V15.0156H332.69V106.007Z" fill="#222222"/>
<path d="M350.087 42.2966C350.087 38.5333 350.835 35.0021 352.331 31.7021C353.822 28.4013 355.857 25.516 358.426 23.0388C360.999 20.5646 363.997 18.6106 367.426 17.1712C370.854 15.7342 374.523 15.0156 378.432 15.0156H421.81V33.2229H378.432C377.114 33.2229 375.885 33.4596 374.741 33.9221C373.597 34.3881 372.599 35.0314 371.744 35.8588C370.884 36.682 370.217 37.6468 369.733 38.7437C369.247 39.8453 369.006 41.0279 369.006 42.2966C369.006 43.5696 369.247 44.7665 369.733 45.8839C370.217 47.0074 370.884 47.9765 371.744 48.8032C372.599 49.626 373.597 50.2734 374.741 50.7364C375.885 51.2032 377.114 51.4352 378.432 51.4352H397.356C401.265 51.4352 404.943 52.1468 408.399 53.5611C411.845 54.9792 414.855 56.9267 417.429 59.3997C419.993 61.8769 422.015 64.7742 423.493 68.0908C424.963 71.4139 425.702 74.9587 425.702 78.7197C425.702 82.4892 424.963 86.0205 423.493 89.3162C422.015 92.617 419.993 95.505 417.429 97.9787C414.855 100.455 411.845 102.411 408.399 103.851C404.943 105.286 401.265 106.007 397.356 106.007H355.364V87.7953H397.356C398.674 87.7953 399.902 87.5645 401.044 87.0953C402.192 86.6343 403.189 85.9869 404.044 85.1621C404.898 84.3363 405.575 83.3764 406.057 82.2737C406.537 81.1764 406.778 79.9903 406.778 78.7197C406.778 77.4533 406.537 76.2687 406.057 75.1687C405.575 74.0714 404.898 73.107 404.044 72.283C403.189 71.4564 402.192 70.8135 401.044 70.3452C399.902 69.8827 398.674 69.6483 397.356 69.6483H378.432C374.523 69.6483 370.854 68.9274 367.426 67.4904C363.997 66.051 360.999 64.097 358.426 61.6186C355.857 59.146 353.822 56.2483 352.331 52.9263C350.835 49.609 350.087 46.0642 350.087 42.2966Z" fill="#222222"/>
<path d="M462.41 106.007H443.494V15.0156H462.41V106.007Z" fill="#222222"/>
<path d="M560.556 96.804C556.164 100.401 551.259 103.159 545.853 105.084C540.447 107.007 534.827 107.974 528.978 107.974C524.497 107.974 520.179 107.411 516.028 106.293C511.879 105.17 507.995 103.586 504.39 101.532C500.793 99.4824 497.496 97.0257 494.506 94.1716C491.513 91.3168 488.965 88.145 486.853 84.6527C484.753 81.1643 483.113 77.4095 481.948 73.3937C480.783 69.3736 480.202 65.2068 480.202 60.8902C480.202 56.574 480.783 52.4292 481.948 48.4559C483.113 44.4783 484.753 40.7451 486.853 37.2563C488.965 33.7621 491.513 30.5915 494.506 27.7366C497.496 24.8826 500.793 22.439 504.39 20.4065C507.995 18.376 511.879 16.8023 516.028 15.6803C520.179 14.5606 524.497 14 528.978 14C534.827 14 540.447 14.9595 545.853 16.8834C551.259 18.812 556.164 21.5726 560.556 25.1648L550.669 41.0277C547.811 38.2378 544.516 36.0478 540.777 34.4621C537.045 32.8756 533.108 32.0826 528.978 32.0826C524.853 32.0826 520.971 32.8451 517.348 34.3671C513.721 35.8891 510.543 37.9501 507.819 40.5521C505.093 43.1544 502.948 46.2003 501.361 49.6899C499.777 53.1794 498.984 56.9173 498.984 60.8902C498.984 64.9095 499.777 68.6744 501.361 72.1848C502.948 75.6979 505.093 78.7632 507.819 81.3859C510.543 84.0102 513.721 86.079 517.348 87.6064C520.971 89.1288 524.853 89.8909 528.978 89.8909C531.355 89.8909 533.662 89.6164 535.906 89.0623C538.14 88.5145 540.279 87.7512 542.299 86.779V60.8902H560.556V96.804Z" fill="#222222"/>
<path d="M599.445 106.007H580.521V15.0156H599.445V51.4352H637.212V15.0156H656.124V106.007H637.212V69.6483H599.445V106.007Z" fill="#222222"/>
<path d="M718.755 106.007H699.904V33.2229H671.49V15.0156H747.097V33.2229H718.755V106.007Z" fill="#222222"/>
<path d="M234.148 106.007H215.228V15.0156H234.148V106.007Z" fill="#222222"/>
<path d="M220.386 146.445C220.386 143.357 221.07 140.687 222.438 138.437C223.85 136.187 225.681 134.466 227.931 133.275C230.181 132.04 232.63 131.422 235.277 131.422C237.484 131.422 239.447 131.709 241.168 132.282C242.888 132.856 244.433 133.628 245.801 134.599C247.212 135.569 248.426 136.628 249.441 137.775V127.12C247.543 125.62 245.47 124.451 243.219 123.612C241.013 122.774 238.212 122.355 234.814 122.355C231.284 122.355 227.997 122.928 224.953 124.076C221.953 125.223 219.327 126.877 217.077 129.039C214.871 131.201 213.15 133.76 211.915 136.716C210.724 139.629 210.128 142.872 210.128 146.445C210.128 150.019 210.724 153.284 211.915 156.24C213.15 159.152 214.871 161.69 217.077 163.851C219.327 166.013 221.953 167.668 224.953 168.815C227.997 169.962 231.284 170.536 234.814 170.536C238.212 170.536 241.013 170.117 243.219 169.278C245.47 168.44 247.543 167.271 249.441 165.771V155.115C248.426 156.263 247.212 157.321 245.801 158.292C244.433 159.263 242.888 160.035 241.168 160.609C239.447 161.182 237.484 161.469 235.277 161.469C232.63 161.469 230.181 160.873 227.931 159.682C225.681 158.447 223.85 156.704 222.438 154.454C221.07 152.159 220.386 149.49 220.386 146.445Z" fill="#09AB77"/>
<path d="M264.308 159.086H288.796L287.67 151.608H265.433L264.308 159.086ZM276.419 138.305L283.369 154.387L283.236 156.77L289.193 169.609H299.914L276.419 120.568L252.924 169.609H263.58L269.669 156.373L269.47 154.255L276.419 138.305Z" fill="#09AB77"/>
<path d="M304.94 123.281V169.609H314.404V123.281H304.94ZM310.698 131.289H319.897C322.412 131.289 324.398 131.863 325.854 133.01C327.31 134.113 328.038 135.79 328.038 138.04C328.038 140.246 327.31 141.923 325.854 143.07C324.398 144.217 322.412 144.791 319.897 144.791H310.698V152.799H319.897C323.56 152.799 326.67 152.203 329.229 151.012C331.832 149.821 333.818 148.122 335.186 145.916C336.553 143.666 337.237 141.04 337.237 138.04C337.237 134.996 336.553 132.37 335.186 130.164C333.818 127.958 331.832 126.26 329.229 125.068C326.67 123.877 323.56 123.281 319.897 123.281H310.698V131.289Z" fill="#09AB77"/>
<path d="M344.559 123.281V169.609H354.156V123.281H344.559Z" fill="#09AB77"/>
<path d="M359.51 131.819H371.952V169.609H381.416V131.819H393.925V123.281H359.51V131.819Z" fill="#09AB77"/>
<path d="M399.13 159.086H423.617L422.492 151.608H400.255L399.13 159.086ZM411.241 138.305L418.19 154.387L418.058 156.77L424.014 169.609H434.736L411.241 120.568L387.746 169.609H398.402L404.491 156.373L404.292 154.255L411.241 138.305Z" fill="#09AB77"/>
<path d="M439.762 123.281V169.609H467.691V161.337H449.226V123.281H439.762Z" fill="#09AB77"/>
<path d="M28.1074 153.5C44.0655 172.744 68.1557 185 95.1086 185C116.439 185 135.976 177.324 151.109 164.583" stroke="#7BE6B9" stroke-width="18" stroke-linejoin="round"/>
<path d="M143.96 26C130.034 16.5327 113.218 11 95.1087 11C51.3044 11 15.0614 43.3735 9 85.5" stroke="#3BBD87" stroke-width="18" stroke-linejoin="round"/>
<path d="M156.642 119C147.91 144.594 123.659 163 95.1089 163C59.2104 163 30.1089 133.899 30.1089 98.0002C30.1089 72.9229 44.31 51.1625 65.1089 40.3223" stroke="#09AB77" stroke-width="18" stroke-linejoin="round"/>
<path d="M82.6089 34.2008C86.654 33.4128 90.8332 33 95.1089 33C111.997 33 127.381 39.4408 138.939 50" stroke="#7BE6B9" stroke-width="18" stroke-linejoin="round"/>
<path d="M105.109 56.1689C101.9 55.4046 98.5516 55 95.1088 55C78.9872 55 64.9378 63.872 57.5767 77" stroke="#09AB77" stroke-width="18" stroke-linejoin="round"/>
<path d="M52.597 91.5C52.2755 93.6198 52.1089 95.7904 52.1089 98C52.1089 121.748 71.3606 141 95.1089 141C101.155 141 106.91 139.752 112.129 137.5" stroke="#3BBD87" stroke-width="18" stroke-linejoin="round"/>
</svg>
