<svg width="150" height="100" viewBox="0 0 150 100" fill="none" xmlns="http://www.w3.org/2000/svg">
<g clip-path="url(#clip0_394_15015)">
<g clip-path="url(#clip1_394_15015)">
<mask id="mask0_394_15015" style="mask-type:luminance" maskUnits="userSpaceOnUse" x="0" y="0" width="150" height="100">
<path d="M150 0H0V100H150V0Z" fill="white"/>
</mask>
<g mask="url(#mask0_394_15015)">
<path d="M94.6354 0.343659C93.6782 0.457677 92.7274 0.589114 91.7941 0.758557C90.2682 1.01272 88.743 1.35161 87.2274 1.76176C85.9137 2.11727 84.6071 2.52425 83.3157 2.9922C80.5845 3.97402 77.9075 5.21713 75.3581 6.68907C74.4687 7.19265 73.5985 7.73582 72.7418 8.29878C71.4703 9.13412 70.2355 10.0265 69.0494 10.9758C68.9425 11.0613 68.8324 11.1413 68.7263 11.2276L71.44 14.4344C71.6338 14.2776 71.8348 14.1295 72.0319 13.9759C72.2416 13.812 72.4514 13.6457 72.6644 13.4866C72.7609 13.4137 72.8558 13.3385 72.9524 13.2665C73.21 13.0749 73.474 12.8935 73.7349 12.7075C73.8832 12.6022 74.0292 12.4929 74.1792 12.39C75.2512 11.6481 76.3488 10.9529 77.4704 10.3163C78.1835 9.90136 78.9245 9.50785 79.6791 9.12699C80.685 8.6155 81.7219 8.13092 82.8163 7.68039C83.4529 7.41752 84.0998 7.16652 84.7563 6.9274C84.9613 6.85376 85.1703 6.79042 85.3761 6.71995C87.6957 5.91707 90.0927 5.29156 92.5192 4.87666C93.5402 4.69138 94.5987 4.5544 95.6708 4.44355C97.2605 4.27648 98.8846 4.18147 100.534 4.18147C102.277 4.18147 103.99 4.28678 105.667 4.47285C106.647 4.58053 107.616 4.70801 108.557 4.87745C109.23 4.99305 109.9 5.12212 110.565 5.26622C112.033 5.58373 113.463 5.97725 114.855 6.42857C115.35 6.5893 115.845 6.75083 116.331 6.9274C116.998 7.17127 117.655 7.42702 118.298 7.69464C119.587 8.22594 120.8 8.7889 121.952 9.39304C122.33 9.59177 122.693 9.80239 123.06 10.009C123.246 10.1144 123.442 10.2141 123.625 10.3218C125.579 11.4303 127.467 12.7186 129.259 14.1414C129.384 14.2404 129.51 14.3409 129.636 14.4415L129.642 14.4344L130.101 14.8136C130.137 14.8429 130.173 14.8699 130.208 14.8991L130.768 15.3655L130.759 15.3774C131.083 15.6553 131.411 15.9285 131.728 16.2151C133.219 17.5659 134.618 19.0196 135.896 20.5502C137.635 22.5732 139.194 24.7759 140.526 27.0896C141.854 29.3628 143.004 31.7983 143.939 34.3226C144.16 34.933 144.366 35.5475 144.56 36.1619C144.625 36.3678 144.682 36.5744 144.744 36.7803C144.868 37.1912 144.989 37.6006 145.101 38.0123C145.168 38.257 145.226 38.5016 145.288 38.7471C145.382 39.1208 145.476 39.4945 145.561 39.8691C145.618 40.1272 145.67 40.3853 145.724 40.6434C145.772 40.8754 145.827 41.1066 145.87 41.3386L150.001 40.607C149.951 40.3378 149.899 40.0694 149.844 39.8002C149.787 39.5183 149.73 39.2364 149.667 38.9538C149.575 38.5412 149.472 38.1303 149.367 37.7186C149.3 37.4517 149.237 37.1849 149.165 36.9181C149.044 36.4667 148.906 36.0178 148.771 35.5688C148.703 35.3448 148.642 35.1207 148.57 34.8974C148.357 34.2268 148.129 33.5593 147.886 32.8958C146.953 30.3335 145.795 27.8639 144.463 25.5313L144.155 24.9945C143.556 23.9525 142.905 22.9358 142.225 21.9382C142.081 21.7252 141.941 21.5059 141.793 21.2952C140.957 20.1091 140.067 18.9595 139.126 17.8549C138.462 17.0694 137.765 16.3109 137.052 15.5666C136.198 14.6727 135.314 13.8057 134.396 12.9767C133.913 12.5412 133.424 12.1113 132.924 11.6964L132.884 11.6623C131.257 10.2965 129.5 9.01535 127.641 7.83954C127.014 7.44444 126.378 7.06042 125.73 6.68907C123.223 5.23297 120.546 3.98906 117.771 2.99141C114.984 1.98267 112.13 1.22967 109.287 0.753807C104.559 -0.0942014 99.4717 -0.222471 94.6362 0.342867L94.6354 0.343659Z" fill="#F5802A"/>
<path d="M125.71 93.3146C128.24 91.8909 130.662 90.2091 132.918 88.3112C133.48 87.8464 134.032 87.3674 134.572 86.8773C136.195 85.4053 137.719 83.8233 139.121 82.1526C140.55 80.4764 141.861 78.7076 143.033 76.8715C143.423 76.2594 143.8 75.6401 144.159 75.0138C144.512 74.4144 144.852 73.804 145.18 73.1864C145.283 72.99 145.379 72.7889 145.48 72.591C145.698 72.1666 145.916 71.7414 146.121 71.3091C146.237 71.0629 146.347 70.8135 146.459 70.5664C146.636 70.1753 146.815 69.7849 146.982 69.3875C147.097 69.1159 147.205 68.8403 147.315 68.5664C147.42 68.3075 147.521 68.0453 147.621 67.784L145.239 66.921L143.682 66.3604C143.646 66.4547 143.6 66.5433 143.562 66.6376C143.166 67.6447 142.74 68.6383 142.276 69.6106C142.224 69.7231 142.164 69.8324 142.111 69.9441C141.614 70.9639 141.089 71.9646 140.524 72.9346C139.183 75.2458 137.623 77.4415 135.888 79.4597C134.192 81.4938 132.276 83.3965 130.202 85.1044C128.141 86.8337 125.925 88.3762 123.616 89.685C121.408 90.9756 118.953 92.1166 116.332 93.0747C113.851 93.9773 111.231 94.6662 108.543 95.1214C105.985 95.5862 103.288 95.8205 100.533 95.8205C97.779 95.8205 95.0829 95.5862 92.5184 95.1207C91.8962 95.0153 91.2732 94.8934 90.6519 94.7596C90.4413 94.7153 90.2315 94.6614 90.0209 94.6131C89.6085 94.5181 89.1969 94.4222 88.7853 94.3161C88.5388 94.252 88.2947 94.1807 88.0483 94.1118C87.6726 94.0089 87.2969 93.9037 86.9235 93.7896C86.6675 93.712 86.4114 93.6273 86.1554 93.545C85.9201 93.4674 85.6816 93.3976 85.4455 93.3176L84.0049 97.2544C85.0426 97.6147 86.0916 97.9283 87.1445 98.2158C88.6864 98.6346 90.2363 98.9854 91.783 99.2427C92.9388 99.4518 94.1185 99.6077 95.3078 99.7319C98.6214 100.073 102.033 100.09 105.35 99.7764C106.676 99.6497 107.988 99.4762 109.274 99.2442C110.582 99.0273 111.882 98.7471 113.172 98.42C114.611 98.0519 116.041 97.6187 117.455 97.1175C117.559 97.0795 117.664 97.0479 117.768 97.0107C118.459 96.7612 119.144 96.4976 119.819 96.2204C121.844 95.3867 123.816 94.4143 125.705 93.3169L125.71 93.3146Z" fill="#FAB950"/>
<path d="M94.5094 15.9733C96.2435 15.6708 98.0255 15.5236 99.8091 15.4871V15.4555H101.272V15.4871C103.054 15.5236 104.84 15.6716 106.591 15.9741L107.196 16.1071C108.051 16.2623 108.891 16.4555 109.716 16.6748C109.983 16.7461 110.241 16.8332 110.505 16.9108C110.925 17.0343 111.351 17.1467 111.761 17.2877L113.207 13.3493C111.353 12.7072 109.377 12.206 107.322 11.8568C102.895 11.0579 98.1212 11.0642 93.7676 11.8552C91.7207 12.202 89.7481 12.7048 87.8887 13.3493L89.3222 17.2861C89.7968 17.123 90.2881 16.9955 90.7723 16.8538C91.0794 16.7651 91.3769 16.663 91.6864 16.5814C92.6149 16.3407 93.5554 16.1341 94.5094 15.9733Z" fill="#FAB950"/>
<path d="M125.502 20.231C123.942 18.9475 122.322 17.7971 120.67 16.8145L118.564 20.4369C119.003 20.699 119.423 20.9935 119.851 21.277C120.109 21.448 120.375 21.6064 120.63 21.7853C121.413 22.3356 122.177 22.9128 122.91 23.5273C124.457 24.8123 125.904 26.251 127.212 27.7998C128.389 29.1989 129.419 30.6439 130.302 32.1023L130.311 32.0968L130.676 32.7231C130.676 32.7231 130.679 32.7271 130.68 32.7294L131.039 33.3558L131.017 33.3684C131.89 34.9338 132.655 36.5459 133.248 38.1873C133.788 39.6647 134.217 41.1391 134.529 42.5865C134.582 42.8272 134.621 43.0639 134.667 43.303H134.672L134.801 44.0093C134.802 44.0141 134.803 44.0196 134.804 44.0243L134.92 44.7338L134.9 44.7377C135.175 46.4583 135.338 48.2256 135.338 50.0095C135.338 50.9731 135.291 51.9296 135.211 52.8765C135.186 53.1829 135.138 53.4815 135.104 53.7863C135.048 54.2883 135.005 54.7951 134.925 55.2884L135.794 55.4412L139.074 56.0191C139.088 55.9313 139.101 55.8426 139.115 55.7539C139.247 54.8727 139.357 53.9851 139.428 53.0904C139.432 53.0357 139.435 52.9803 139.44 52.9264C139.511 51.9573 139.552 50.9834 139.552 50.0095C139.552 47.8463 139.367 45.695 139.012 43.6079C138.994 43.5026 138.982 43.3949 138.962 43.2896C138.762 42.1446 138.517 41.0266 138.226 39.9403C138.22 39.9189 138.213 39.8983 138.207 39.8762C137.918 38.8017 137.587 37.7581 137.212 36.7549C136.823 35.6907 136.391 34.659 135.924 33.6598C135.91 33.6281 135.896 33.5941 135.881 33.5616C135.405 32.5497 134.89 31.5734 134.339 30.6407C133.78 29.6818 133.179 28.7483 132.541 27.8441C132.521 27.8132 132.5 27.7808 132.478 27.7491C131.873 26.8932 131.228 26.0689 130.558 25.2716C130.514 25.2177 130.469 25.1591 130.424 25.1045C130.368 25.0388 130.31 24.9762 130.252 24.9113C129.603 24.1472 128.924 23.4045 128.212 22.6935C128.174 22.6555 128.138 22.6151 128.1 22.5779C127.309 21.794 126.484 21.0434 125.627 20.3348L125.502 20.231Z" fill="#F5802A"/>
<path d="M106.347 17.4351L105.733 17.3053C104.893 17.1762 104.047 17.0867 103.198 17.0202C102.953 17.0012 102.709 16.9941 102.462 16.9806C102.066 16.9577 101.669 16.9521 101.272 16.9434V21.0995C101.698 21.1098 102.122 21.1486 102.546 21.1779C102.776 21.1929 103.006 21.1993 103.236 21.2191C104.029 21.2911 104.818 21.3877 105.596 21.5231C107.281 21.8216 108.926 22.2579 110.488 22.8185C112.104 23.4036 113.658 24.1265 115.112 24.9658C116.553 25.7837 117.95 26.7576 119.254 27.8574C120.535 28.9097 121.747 30.1093 122.852 31.4165C123.36 32.0112 123.84 32.6359 124.298 33.278C124.447 33.4863 124.581 33.7032 124.723 33.9154C124.947 34.2488 125.181 34.5742 125.392 34.9171L129.034 32.8283C129 32.7721 128.965 32.7143 128.931 32.6573C128.56 32.0563 128.165 31.4577 127.741 30.8639C127.672 30.7689 127.601 30.6754 127.531 30.5804C127.077 29.9589 126.6 29.3405 126.089 28.7332C124.839 27.2509 123.452 25.874 121.969 24.6404C120.482 23.3949 118.88 22.2809 117.205 21.3307C115.5 20.3529 113.733 19.5357 111.951 18.8999C110.178 18.2427 108.296 17.7518 106.347 17.4367V17.4351Z" fill="#F04020"/>
<path d="M129.553 47.4692C129.554 47.478 129.555 47.4875 129.556 47.4962C129.561 47.5587 129.561 47.6205 129.566 47.683C129.583 47.9008 129.589 48.1169 129.603 48.3347C129.62 48.6506 129.647 48.9665 129.655 49.2824H129.664V50.0085C129.664 51.6958 129.518 53.3839 129.229 55.0285L129.102 55.7458L129.091 55.7442C129.01 56.1441 128.903 56.5297 128.805 56.9216C128.743 57.1758 128.689 57.4339 128.62 57.6849C128.409 58.4443 128.175 59.1885 127.907 59.9059C127.349 61.4657 126.625 63.0026 125.76 64.465C124.949 65.8879 123.963 67.2838 122.834 68.6053C121.762 69.8928 120.552 71.0931 119.247 72.1651C117.97 73.2277 116.573 74.1993 115.097 75.0513C113.623 75.8969 112.077 76.6143 110.504 77.1828L110.366 77.2255C108.839 77.7679 107.235 78.1883 105.599 78.4789C103.939 78.7656 102.238 78.9112 100.541 78.9112C98.8431 78.9112 97.1425 78.7656 95.4857 78.4789C94.712 78.342 93.9486 78.1701 93.1948 77.9761C92.9475 77.9128 92.7074 77.8335 92.4626 77.7639C92.0653 77.6499 91.6633 77.5462 91.2732 77.4179L89.8231 81.3499C91.4072 81.8938 93.0624 82.3127 94.7527 82.5961C98.5336 83.2565 102.496 83.2606 106.324 82.597C108.276 82.2668 110.165 81.7649 111.942 81.1061C113.732 80.4679 115.499 79.6516 117.201 78.6744C118.881 77.7211 120.483 76.6078 121.966 75.3647C123.465 74.1075 124.849 72.7391 126.078 71.2957C127.289 69.8554 128.411 68.2617 129.413 66.5616C130.392 64.9052 131.219 63.1435 131.871 61.3256C131.898 61.2559 131.918 61.1862 131.943 61.1173C131.97 61.0429 131.988 60.9677 132.014 60.8933C132.294 60.1031 132.552 59.3113 132.763 58.5179C132.841 58.2273 132.886 57.9375 132.954 57.6469C133.101 57.0167 133.256 56.3864 133.36 55.7601C133.704 53.8946 133.877 51.9642 133.877 50.0085C133.877 49.0948 133.831 48.1834 133.755 47.28C133.73 46.9862 133.684 46.6988 133.652 46.4074C133.598 45.93 133.535 45.4565 133.46 44.9854L129.344 45.6933C129.432 46.2823 129.501 46.8754 129.553 47.4692Z" fill="#FAB950"/>
<path d="M143.605 61.9156C143.994 60.5221 144.317 59.1198 144.558 57.7176C145.012 55.248 145.242 52.658 145.242 50.0103C145.242 47.3625 145.012 44.7734 144.56 42.3117C144.258 40.5579 143.831 38.7969 143.299 37.0479C143.071 36.3028 142.831 35.5593 142.564 34.8198C141.66 32.3787 140.546 30.0207 139.257 27.8156C137.97 25.5772 136.462 23.4489 134.777 21.4868C134.076 20.6491 133.335 19.843 132.568 19.06C132.486 18.9768 132.407 18.8897 132.325 18.8074C131.591 18.0702 130.825 17.3639 130.038 16.6822C129.964 16.6189 129.891 16.5547 129.817 16.4922L129.605 16.744L127.122 19.691C127.161 19.7251 127.197 19.7639 127.237 19.7979C127.942 20.4116 128.632 21.0505 129.301 21.7235C129.427 21.8494 129.547 21.9809 129.671 22.1092C130.232 22.6903 130.78 23.2881 131.31 23.9073C131.385 23.9952 131.471 24.076 131.545 24.1654C131.599 24.2288 131.644 24.2985 131.697 24.3618C132.379 25.1694 133.04 26.019 133.674 26.9169C133.697 26.9486 133.718 26.981 133.74 27.0127C134.39 27.9367 135.014 28.9019 135.605 29.9067C136.172 30.8679 136.705 31.8822 137.203 32.9432C137.221 32.9789 137.234 33.0161 137.251 33.0517C137.73 34.0787 138.178 35.1476 138.586 36.2537C138.696 36.553 138.794 36.8578 138.897 37.1611C139.166 37.9465 139.42 38.747 139.641 39.5721C139.927 40.6402 140.166 41.7258 140.36 42.8208C140.373 42.8945 140.39 42.9665 140.402 43.0401C140.812 45.3181 141.02 47.665 141.02 50.0119C141.02 51.9731 140.867 53.932 140.58 55.8553C140.56 55.9954 140.537 56.1356 140.515 56.2749L140.528 56.2773L140.404 56.9899L140.403 56.9939L140.276 57.7081L140.264 57.7057C140.089 58.6131 139.89 59.5189 139.649 60.4184C139.348 61.5538 138.999 62.6678 138.603 63.751C138.549 63.8959 138.488 64.0384 138.432 64.1833C137.756 65.9815 136.925 67.7559 135.961 69.4757L135.976 69.4852L135.605 70.1154L135.604 70.117L135.24 70.7394L135.224 70.7306C134.157 72.4884 132.934 74.2066 131.563 75.8409C131.492 75.9248 131.409 76 131.337 76.0839C130.673 76.8544 129.987 77.5978 129.277 78.3105C129.223 78.3643 129.171 78.4213 129.116 78.4744C128.291 79.2954 127.44 80.0746 126.567 80.8046C125.669 81.5425 124.754 82.2314 123.832 82.8759C123.794 82.902 123.758 82.929 123.721 82.9543C122.792 83.5988 121.852 84.1911 120.908 84.7319C120.864 84.7572 120.822 84.7889 120.777 84.815C120.734 84.8411 120.686 84.8609 120.642 84.8863C119.707 85.4199 118.749 85.9172 117.773 86.3741C117.734 86.3923 117.696 86.4121 117.657 86.4311C116.593 86.9259 115.509 87.3717 114.41 87.7676C114.403 87.7708 114.396 87.7739 114.389 87.7763C114.247 87.8278 114.1 87.8737 113.957 87.9236C112.707 88.3686 111.395 88.7502 110.036 89.0693C109.456 89.2063 108.87 89.3306 108.275 89.443L108.276 89.447L107.917 89.5127C107.796 89.5349 107.677 89.5618 107.555 89.5832C107.457 89.6006 107.357 89.6117 107.259 89.6283L106.836 89.7004L106.834 89.694C106.684 89.717 106.535 89.7408 106.384 89.7629C104.477 90.0472 102.519 90.2 100.541 90.2C98.5624 90.2 96.5674 90.0456 94.6482 89.7582C94.2677 89.702 93.8864 89.6497 93.5083 89.5832C91.1616 89.1786 88.8699 88.5776 86.6978 87.7937C84.4899 86.9932 82.3394 85.9908 80.3053 84.8134C80.1546 84.7287 80.0062 84.6337 79.8554 84.5458C78.911 83.9971 77.9817 83.4041 77.0756 82.7651C76.1997 82.1491 75.3422 81.4974 74.5142 80.8046C74.5087 80.8006 74.5039 80.7943 74.4975 80.7896C73.7716 80.1815 73.0649 79.5338 72.3717 78.8639C72.284 78.7784 72.1946 78.6976 72.1077 78.6113C71.4759 77.989 70.8633 77.3405 70.2659 76.6715C70.1805 76.5764 70.0864 76.4901 70.0018 76.3943L66.788 79.0745C67.687 80.1142 68.6602 81.1023 69.67 82.0604C70.3688 82.7223 71.0747 83.3755 71.8173 83.9884C72.4985 84.5593 73.2013 85.1001 73.9128 85.6266C75.2976 86.6472 76.7294 87.5887 78.2003 88.42C78.9062 88.8365 79.6353 89.2245 80.3763 89.5998C81.3447 90.0875 82.3394 90.5531 83.366 90.9783C83.9802 91.2309 84.6095 91.4748 85.2572 91.7099L85.3147 91.7313C87.7619 92.6062 90.2698 93.2666 92.7713 93.691C97.7471 94.5928 103.33 94.592 108.287 93.691C110.897 93.2484 113.429 92.5833 115.826 91.7107C118.367 90.7827 120.741 89.6782 122.882 88.4287C125.121 87.1579 127.265 85.667 129.261 83.9916C131.271 82.3351 133.121 80.4974 134.769 78.525C136.452 76.5661 137.959 74.4426 139.255 72.2081C140.551 69.9903 141.664 67.6268 142.565 65.1794C142.727 64.7328 142.874 64.2839 143.021 63.8341C143.231 63.1952 143.425 62.5554 143.604 61.9148L143.605 61.9156Z" fill="#F04020"/>
<path d="M129.442 69.209C129.267 69.4687 129.102 69.7379 128.922 69.9913C128.369 70.768 127.796 71.5194 127.197 72.2312C125.912 73.7396 124.471 75.1656 122.91 76.4752C121.36 77.7753 119.684 78.9409 117.93 79.9354C116.155 80.9528 114.308 81.8064 112.447 82.4715C111.569 82.7961 110.662 83.078 109.738 83.3282C109.433 83.4113 109.119 83.4707 108.811 83.5451C108.307 83.6655 107.81 83.8001 107.296 83.8991L107.61 85.6814L108.02 87.995C108.606 87.8833 109.18 87.7551 109.75 87.6197C110.113 87.5342 110.486 87.4637 110.84 87.3687C111.809 87.1082 112.748 86.8105 113.66 86.4819C113.733 86.4557 113.815 86.4368 113.888 86.409C113.902 86.4051 113.914 86.3987 113.928 86.394C114.99 86.0068 116.029 85.5808 117.033 85.1152C117.075 85.0962 117.115 85.0749 117.156 85.0551C118.104 84.6133 119.02 84.1358 119.903 83.6298C119.948 83.6045 119.993 83.5823 120.037 83.557C120.083 83.5301 120.129 83.5 120.175 83.4739C121.096 82.941 122.002 82.3725 122.881 81.7636C122.922 81.7359 122.959 81.7066 122.998 81.6797C123.899 81.0502 124.78 80.3875 125.627 79.6859C126.474 78.9773 127.291 78.2283 128.079 77.4491C128.135 77.3937 128.189 77.3359 128.244 77.2797C128.928 76.5956 129.581 75.8846 130.21 75.1553C130.284 75.069 130.363 74.9875 130.436 74.9004C131.036 74.1917 131.612 73.4482 132.168 72.6849C132.225 72.6073 132.284 72.5305 132.34 72.4529C132.853 71.7372 133.342 70.9952 133.813 70.2391C133.861 70.1615 133.909 70.0831 133.956 70.0047L130.303 67.916C130.03 68.361 129.732 68.7798 129.442 69.209Z" fill="#F5802A"/>
<path d="M3.77058 59.2913H0V40.5869H3.77058V59.2913Z" fill="#07215B"/>
<path d="M23.4076 59.2913H19.3754L12.111 46.9782V59.2913H8.34045V40.5869H12.3735L19.6378 52.9127V40.5869H23.4076V59.2913Z" fill="#07215B"/>
<path d="M26.8751 46.1942C26.8751 45.4206 27.0242 44.6945 27.3226 44.016C27.6193 43.3374 28.0253 42.7443 28.5374 42.2352C29.0503 41.7269 29.6478 41.3247 30.3306 41.0293C31.0142 40.734 31.7448 40.5859 32.5241 40.5859H41.1685V44.3287H32.5241C32.2617 44.3287 32.0168 44.377 31.7887 44.4728C31.5606 44.5686 31.3619 44.7009 31.1912 44.8711C31.0197 45.0405 30.8865 45.2385 30.79 45.4641C30.6935 45.6906 30.6456 45.9337 30.6456 46.1942C30.6456 46.4547 30.6935 46.7017 30.79 46.9313C30.8865 47.1625 31.0197 47.3613 31.1912 47.5315C31.3619 47.701 31.5606 47.834 31.7887 47.929C32.0168 48.0248 32.2617 48.0731 32.5241 48.0731H36.2955C37.0748 48.0731 37.8071 48.2196 38.4963 48.5102C39.1831 48.8015 39.7829 49.2022 40.2958 49.7105C40.8071 50.2196 41.21 50.8151 41.5043 51.4968C41.797 52.1801 41.9446 52.9086 41.9446 53.6813C41.9446 54.4541 41.797 55.1818 41.5043 55.8596C41.21 56.5381 40.8071 57.132 40.2958 57.6403C39.7829 58.1494 39.1831 58.5517 38.4963 58.847C37.8079 59.1423 37.0748 59.2904 36.2955 59.2904H27.9272V55.5468H36.2955C36.558 55.5468 36.8028 55.4993 37.0302 55.4027C37.2591 55.3077 37.4577 55.1747 37.6284 55.0052C37.7983 54.8358 37.9339 54.6378 38.0297 54.4114C38.1254 54.1857 38.1732 53.9418 38.1732 53.6806C38.1732 53.4193 38.1254 53.177 38.0297 52.9505C37.9339 52.7249 37.7991 52.5269 37.6284 52.3575C37.4577 52.1872 37.2591 52.055 37.0302 51.9592C36.8028 51.8642 36.558 51.8159 36.2955 51.8159H32.5241C31.7448 51.8159 31.0142 51.6678 30.3306 51.3725C29.647 51.0764 29.0503 50.6749 28.5374 50.1658C28.0253 49.6575 27.6201 49.062 27.3226 48.3787C27.0242 47.697 26.8751 46.9686 26.8751 46.1942Z" fill="#07215B"/>
<path d="M49.2584 59.2913H45.4886V40.5869H49.2584V59.2913Z" fill="#07215B"/>
<path d="M68.8173 57.399C67.9422 58.1385 66.9643 58.7055 65.8874 59.1006C64.8098 59.4957 63.6899 59.6944 62.5245 59.6944C61.6311 59.6944 60.7712 59.5788 59.944 59.3492C59.1168 59.118 58.3431 58.7926 57.6244 58.3705C56.9073 57.9493 56.2508 57.4441 55.6549 56.8574C55.0583 56.2707 54.551 55.6183 54.1298 54.9009C53.7118 54.1835 53.3848 53.4123 53.1527 52.5865C52.9205 51.7599 52.8049 50.9039 52.8049 50.0163C52.8049 49.1287 52.9205 48.2768 53.1527 47.4604C53.3848 46.6425 53.7118 45.8753 54.1298 45.1579C54.551 44.4398 55.0583 43.7881 55.6549 43.2014C56.2508 42.6147 56.9081 42.1127 57.6244 41.6946C58.3431 41.2774 59.1168 40.9535 59.944 40.7231C60.7712 40.4927 61.6319 40.3779 62.5245 40.3779C63.6899 40.3779 64.8098 40.575 65.8874 40.9709C66.9651 41.3676 67.9422 41.9345 68.8173 42.6733L66.847 45.9339C66.2775 45.3606 65.621 44.9101 64.876 44.5839C64.1326 44.2577 63.3477 44.0945 62.5245 44.0945C61.7013 44.0945 60.9291 44.2513 60.2064 44.5641C59.4838 44.8768 58.8504 45.3004 58.308 45.8357C57.7648 46.3709 57.3372 46.9965 57.0213 47.7138C56.7055 48.4312 56.5475 49.1992 56.5475 50.0163C56.5475 50.8335 56.7055 51.6166 57.0213 52.3379C57.3372 53.06 57.7648 53.6903 58.308 54.2295C58.8504 54.7687 59.4838 55.1939 60.2064 55.5082C60.9283 55.821 61.7021 55.9777 62.5245 55.9777C62.9983 55.9777 63.4577 55.9215 63.9052 55.8075C64.3503 55.6951 64.7763 55.5383 65.1791 55.338V50.0163H68.8173V57.399Z" fill="#07215B"/>
<path d="M76.5674 59.2913H72.796V40.5869H76.5674V48.0732H84.0934V40.5869H87.8624V59.2913H84.0934V51.8176H76.5674V59.2913Z" fill="#07215B"/>
<path d="M100.343 59.2913H96.5865V44.3297H90.9238V40.5869H105.991V44.3297H100.343V59.2913Z" fill="#07215B"/>
<path d="M2.42491 65.1246C2.98328 65.1246 3.45869 65.336 3.85194 65.7588C4.24998 66.1761 4.4494 66.6891 4.4494 67.2988C4.4494 67.9085 4.24998 68.424 3.85194 68.8468C3.45949 69.264 2.98328 69.4723 2.42491 69.4723C1.86655 69.4723 1.39592 69.272 1.08084 68.8713V69.3575H0.0111694V63.5932H1.08084V65.7263C1.39592 65.3257 1.84421 65.1246 2.42491 65.1246ZM1.4047 68.1381C1.62007 68.3519 1.89447 68.4596 2.2263 68.4596C2.55813 68.4596 2.83173 68.3527 3.04789 68.1381C3.26885 67.9188 3.37972 67.6385 3.37972 67.298C3.37972 66.9576 3.26885 66.6804 3.04789 66.4667C2.83252 66.2473 2.55813 66.1373 2.2263 66.1373C1.89447 66.1373 1.62086 66.2473 1.4047 66.4667C1.18933 66.6804 1.08084 66.9584 1.08084 67.298C1.08084 67.6377 1.18853 67.9188 1.4047 68.1381ZM7.94159 65.2394H9.01206V69.3567H7.94159V68.8959C7.68155 69.2799 7.26995 69.4723 6.7052 69.4723C6.25133 69.4723 5.87563 69.3211 5.5773 69.0194C5.28376 68.7177 5.13779 68.3004 5.13779 67.7676V65.2394H6.20826V67.6353C6.20826 67.9101 6.28324 68.1215 6.4324 68.2696C6.58157 68.4121 6.78098 68.4833 7.02986 68.4833C7.30665 68.4833 7.5276 68.3978 7.69352 68.2284C7.85943 68.0589 7.94239 67.8032 7.94239 67.4627L7.94159 65.2394ZM10.9464 66.4088C10.9464 66.5189 11.0182 66.6092 11.1618 66.6804C11.3109 66.7462 11.4904 66.8063 11.701 66.8618C11.9108 66.9108 12.1214 66.9774 12.3312 67.0597C12.5409 67.1365 12.718 67.2687 12.8624 67.4548C13.0116 67.6417 13.0866 67.8745 13.0866 68.1548C13.0866 68.5776 12.9262 68.9038 12.6056 69.135C12.2905 69.3599 11.8948 69.4723 11.4194 69.4723C10.5675 69.4723 9.98681 69.1461 9.67732 68.4921L10.6066 67.9734C10.7286 68.3305 10.9991 68.5087 11.4194 68.5087C11.8007 68.5087 11.9922 68.3907 11.9922 68.1548C11.9922 68.0447 11.9172 67.9568 11.768 67.8911C11.6244 67.8198 11.4473 67.7565 11.2368 67.7018C11.0262 67.6472 10.8164 67.5783 10.6066 67.496C10.3968 67.4136 10.2165 67.2846 10.0674 67.1088C9.9238 66.9275 9.85201 66.7026 9.85201 66.4334C9.85201 66.0272 10.0012 65.7089 10.3003 65.4785C10.6042 65.2425 10.9807 65.1246 11.4282 65.1246C11.7656 65.1246 12.0727 65.2014 12.3487 65.355C12.6255 65.503 12.8433 65.7176 13.0044 65.9971L12.0919 66.4912C11.9594 66.2109 11.7377 66.0715 11.4282 66.0715C11.2902 66.0715 11.1737 66.1016 11.0796 66.1618C10.9911 66.222 10.9464 66.3043 10.9464 66.4088ZM14.3062 64.7453C14.1291 64.7453 13.9744 64.682 13.8419 64.5561C13.7143 64.4246 13.6513 64.271 13.6513 64.0952C13.6513 63.9195 13.7151 63.7659 13.8419 63.6344C13.9744 63.503 14.1299 63.4365 14.3062 63.4365C14.4825 63.4365 14.6436 63.5022 14.7704 63.6344C14.9028 63.7659 14.9699 63.9203 14.9699 64.0952C14.9699 64.2702 14.9036 64.4246 14.7704 64.5561C14.6428 64.6827 14.4881 64.7453 14.3062 64.7453ZM13.7749 69.3567V65.2394H14.8454V69.3567H13.7749ZM18.131 65.1238C18.5841 65.1238 18.9574 65.275 19.2509 65.5767C19.5493 65.8784 19.6992 66.2956 19.6992 66.8285V69.3567H18.6288V66.9607C18.6288 66.686 18.5538 66.4777 18.4046 66.3352C18.2554 66.1871 18.056 66.1127 17.8072 66.1127C17.5304 66.1127 17.3094 66.1982 17.1435 66.3677C16.9776 66.5379 16.8946 66.7929 16.8946 67.1333V69.3567H15.8242V65.2394H16.8946V65.7002C17.1547 65.3162 17.5663 65.1238 18.131 65.1238ZM21.5171 67.7343C21.6607 68.2506 22.0508 68.5087 22.6865 68.5087C23.0957 68.5087 23.4052 68.3717 23.6158 68.0969L24.4789 68.591C24.0697 69.1785 23.4666 69.4723 22.6705 69.4723C21.9845 69.4723 21.4342 69.2664 21.0194 68.8547C20.6046 68.443 20.3972 67.9243 20.3972 67.298C20.3972 66.6717 20.6022 66.1618 21.0114 65.7501C21.4206 65.3328 21.9463 65.1246 22.5876 65.1246C23.1962 65.1246 23.6963 65.3336 24.0888 65.7501C24.4868 66.1674 24.6863 66.6836 24.6863 67.298C24.6863 67.435 24.6727 67.5807 24.6448 67.7343H21.5171ZM21.5004 66.9108H23.6158C23.5552 66.6306 23.4275 66.4223 23.2345 66.2853C23.0462 66.1483 22.8309 66.0795 22.5876 66.0795C22.2996 66.0795 22.0619 66.1539 21.8745 66.302C21.6862 66.4445 21.5618 66.648 21.5012 66.9116L21.5004 66.9108ZM26.2585 66.4088C26.2585 66.5189 26.3302 66.6092 26.4738 66.6804C26.623 66.7462 26.8025 66.8063 27.0131 66.8618C27.2228 66.9108 27.4334 66.9774 27.6432 67.0597C27.8538 67.1365 28.0301 67.2687 28.1745 67.4548C28.3236 67.6417 28.3986 67.8745 28.3986 68.1548C28.3986 68.5776 28.2383 68.9038 27.9176 69.135C27.6025 69.3599 27.2069 69.4723 26.7315 69.4723C25.8796 69.4723 25.2989 69.1461 24.9894 68.4921L25.9186 67.9734C26.0399 68.3305 26.3111 68.5087 26.7315 68.5087C27.1128 68.5087 27.3042 68.3907 27.3042 68.1548C27.3042 68.0447 27.2292 67.9568 27.0801 67.8911C26.9365 67.8198 26.7594 67.7565 26.5488 67.7018C26.3382 67.6472 26.1284 67.5783 25.9186 67.496C25.7081 67.4136 25.5286 67.2846 25.3794 67.1088C25.2358 66.9275 25.1641 66.7026 25.1641 66.4334C25.1641 66.0272 25.3132 65.7089 25.6123 65.4785C25.9163 65.2425 26.2928 65.1246 26.7402 65.1246C27.0777 65.1246 27.3848 65.2014 27.6608 65.355C27.9375 65.503 28.1553 65.7176 28.3164 65.9971L27.4039 66.4912C27.2715 66.2109 27.0497 66.0715 26.7402 66.0715C26.6023 66.0715 26.4858 66.1016 26.3917 66.1618C26.3031 66.222 26.2585 66.3043 26.2585 66.4088ZM29.8551 66.4088C29.8551 66.5189 29.9269 66.6092 30.0705 66.6804C30.2197 66.7462 30.3992 66.8063 30.6097 66.8618C30.8195 66.9108 31.0301 66.9774 31.2399 67.0597C31.4497 67.1365 31.6268 67.2687 31.7711 67.4548C31.9203 67.6417 31.9953 67.8745 31.9953 68.1548C31.9953 68.5776 31.835 68.9038 31.5143 69.135C31.1992 69.3599 30.8036 69.4723 30.3282 69.4723C29.4763 69.4723 28.8955 69.1461 28.5861 68.4921L29.5153 67.9734C29.6366 68.3305 29.9078 68.5087 30.3282 68.5087C30.7094 68.5087 30.9009 68.3907 30.9009 68.1548C30.9009 68.0447 30.8259 67.9568 30.6767 67.8911C30.5332 67.8198 30.3561 67.7565 30.1455 67.7018C29.9349 67.6472 29.7251 67.5783 29.5153 67.496C29.3048 67.4136 29.1253 67.2846 28.9761 67.1088C28.8325 66.9275 28.7607 66.7026 28.7607 66.4334C28.7607 66.0272 28.9099 65.7089 29.209 65.4785C29.5129 65.2425 29.8894 65.1246 30.3369 65.1246C30.6744 65.1246 30.9815 65.2014 31.2574 65.355C31.5342 65.503 31.752 65.7176 31.9131 65.9971L31.0006 66.4912C30.8682 66.2109 30.6464 66.0715 30.3369 66.0715C30.1989 66.0715 30.0825 66.1016 29.9884 66.1618C29.8998 66.222 29.8551 66.3043 29.8551 66.4088ZM35.785 66.4088C35.785 66.5189 35.8568 66.6092 36.0004 66.6804C36.1495 66.7462 36.3298 66.8063 36.5396 66.8618C36.7494 66.9108 36.96 66.9774 37.1698 67.0597C37.3804 67.1365 37.5566 67.2687 37.701 67.4548C37.8502 67.6417 37.9252 67.8745 37.9252 68.1548C37.9252 68.5776 37.7648 68.9038 37.4442 69.135C37.1291 69.3599 36.7334 69.4723 36.258 69.4723C35.4061 69.4723 34.8254 69.1461 34.5159 68.4921L35.4452 67.9734C35.5672 68.3305 35.8377 68.5087 36.258 68.5087C36.6393 68.5087 36.8308 68.3907 36.8308 68.1548C36.8308 68.0447 36.7558 67.9568 36.6066 67.8911C36.463 67.8198 36.2859 67.7565 36.0754 67.7018C35.8656 67.6472 35.655 67.5783 35.4452 67.496C35.2354 67.4136 35.0551 67.2846 34.906 67.1088C34.7624 66.9275 34.6906 66.7026 34.6906 66.4334C34.6906 66.0272 34.8398 65.7089 35.1389 65.4785C35.4428 65.2425 35.8193 65.1246 36.2668 65.1246C36.6042 65.1246 36.9113 65.2014 37.1873 65.355C37.4641 65.503 37.6827 65.7176 37.843 65.9971L36.9305 66.4912C36.7981 66.2109 36.5763 66.0715 36.2668 66.0715C36.1288 66.0715 36.0124 66.1016 35.9182 66.1618C35.8297 66.222 35.785 66.3043 35.785 66.4088ZM39.4615 67.7343C39.605 68.2506 39.9951 68.5087 40.6309 68.5087C41.0401 68.5087 41.3496 68.3717 41.5601 68.0969L42.4232 68.591C42.014 69.1785 41.411 69.4723 40.6149 69.4723C39.9289 69.4723 39.3785 69.2664 38.9637 68.8547C38.5489 68.443 38.3415 67.9243 38.3415 67.298C38.3415 66.6717 38.5465 66.1618 38.9557 65.7501C39.365 65.3328 39.8906 65.1246 40.5319 65.1246C41.1406 65.1246 41.6407 65.3336 42.0332 65.7501C42.4312 66.1674 42.6306 66.6836 42.6306 67.298C42.6306 67.435 42.617 67.5807 42.5891 67.7343H39.4615ZM39.4447 66.9108H41.5601C41.4995 66.6306 41.3719 66.4223 41.1788 66.2853C40.9906 66.1483 40.7752 66.0795 40.5319 66.0795C40.2448 66.0795 40.0063 66.1539 39.8188 66.302C39.6306 66.4445 39.5061 66.648 39.4455 66.9116L39.4447 66.9108ZM44.4477 65.9472C44.5474 65.6836 44.7101 65.4864 44.9375 65.3542C45.1696 65.2228 45.4272 65.1562 45.7088 65.1562V66.3423C45.3826 66.3043 45.089 66.3701 44.8298 66.5403C44.5753 66.7105 44.4485 66.9932 44.4485 67.3883V69.3567H43.378V65.2394H44.4485L44.4477 65.9472ZM49.0638 65.2394H50.242L48.6658 69.3567H47.4461L45.8699 65.2394H47.0481L48.0516 68.1215L49.0638 65.2394ZM51.2885 64.7453C51.1114 64.7453 50.9567 64.682 50.8243 64.5561C50.6966 64.4246 50.6336 64.271 50.6336 64.0952C50.6336 63.9195 50.6974 63.7659 50.8243 63.6344C50.9567 63.503 51.1114 63.4365 51.2885 63.4365C51.4656 63.4365 51.6259 63.5022 51.7527 63.6344C51.8852 63.7659 51.9522 63.9203 51.9522 64.0952C51.9522 64.2702 51.886 64.4246 51.7527 64.5561C51.6195 64.6875 51.4704 64.7453 51.2885 64.7453ZM50.7573 69.3567V65.2394H51.8277V69.3567H50.7573ZM54.7815 69.4723C54.1561 69.4723 53.6336 69.2633 53.2133 68.8468C52.7985 68.4295 52.5911 67.9133 52.5911 67.2988C52.5911 66.6844 52.7985 66.1681 53.2133 65.7509C53.6336 65.3336 54.1561 65.1254 54.7815 65.1254C55.1851 65.1254 55.5528 65.2212 55.8847 65.4136C56.2165 65.606 56.4678 65.8633 56.6393 66.1879L55.7188 66.7232C55.6358 66.553 55.5082 66.4184 55.3375 66.3194C55.1716 66.2204 54.9833 66.1713 54.7735 66.1713C54.4529 66.1713 54.1872 66.2782 53.9774 66.4928C53.7669 66.7018 53.6624 66.9702 53.6624 67.2996C53.6624 67.629 53.7677 67.8927 53.9774 68.1064C54.1872 68.3155 54.4529 68.4192 54.7735 68.4192C54.9889 68.4192 55.1803 68.3725 55.3462 68.2791C55.5177 68.1801 55.6446 68.0455 55.7275 67.8752L56.6568 68.4026C56.4741 68.7264 56.2173 68.9869 55.8855 69.1849C55.5536 69.3773 55.1859 69.4731 54.7823 69.4731L54.7815 69.4723ZM58.0615 67.7351C58.2051 68.2513 58.5951 68.5095 59.2309 68.5095C59.6401 68.5095 59.9496 68.3725 60.1602 68.0977L61.0233 68.5918C60.614 69.1793 60.011 69.4731 59.2149 69.4731C58.5289 69.4731 57.9786 69.2672 57.5638 68.8555C57.149 68.4438 56.9416 67.9251 56.9416 67.2988C56.9416 66.6725 57.1466 66.1626 57.5558 65.7509C57.965 65.3336 58.4907 65.1254 59.132 65.1254C59.7406 65.1254 60.2407 65.3344 60.6332 65.7509C61.0312 66.1681 61.2306 66.6844 61.2306 67.2988C61.2306 67.4358 61.2171 67.5815 61.1892 67.7351H58.0615ZM58.0448 66.9116H60.1602C60.0996 66.6313 59.9719 66.4231 59.7789 66.2861C59.5906 66.1491 59.3753 66.0803 59.132 66.0803C58.8448 66.0803 58.6063 66.1547 58.4189 66.3028C58.2306 66.4453 58.1062 66.6488 58.0456 66.9124L58.0448 66.9116ZM62.8029 66.4096C62.8029 66.5197 62.8746 66.61 63.0182 66.6812C63.1674 66.7469 63.3477 66.8071 63.5574 66.8625C63.768 66.9116 63.9778 66.9781 64.1876 67.0605C64.3982 67.1373 64.5745 67.2695 64.7188 67.4556C64.868 67.6425 64.943 67.8752 64.943 68.1555C64.943 68.5784 64.7827 68.9046 64.462 69.1358C64.1469 69.3606 63.7513 69.4731 63.2759 69.4731C62.424 69.4731 61.8433 69.1469 61.5338 68.4928L62.463 67.9742C62.5851 68.3313 62.8555 68.5095 63.2759 68.5095C63.6572 68.5095 63.8486 68.3915 63.8486 68.1555C63.8486 68.0455 63.7736 67.9576 63.6245 67.8919C63.4809 67.8206 63.3038 67.7573 63.0932 67.7026C62.8834 67.648 62.6728 67.5791 62.463 67.4968C62.2533 67.4144 62.073 67.2854 61.9238 67.1096C61.7802 66.9283 61.7084 66.7034 61.7084 66.4342C61.7084 66.028 61.8576 65.7097 62.1567 65.4793C62.4606 65.2433 62.8372 65.1254 63.2846 65.1254C63.6221 65.1254 63.9292 65.2022 64.2051 65.3558C64.4819 65.5038 64.7005 65.7184 64.8608 65.9979L63.9483 66.492C63.8159 66.2117 63.5941 66.0723 63.2846 66.0723C63.1466 66.0723 63.0302 66.1024 62.9361 66.1626C62.8475 66.2228 62.8029 66.3051 62.8029 66.4096Z" fill="#07215B"/>
</g>
</g>
</g>
<defs>
<clipPath id="clip0_394_15015">
<rect width="150" height="100" fill="white"/>
</clipPath>
<clipPath id="clip1_394_15015">
<rect width="150" height="100" fill="white"/>
</clipPath>
</defs>
</svg>
