<svg width="161" height="40" viewBox="0 0 161 40" fill="none" xmlns="http://www.w3.org/2000/svg">
<path d="M48.0039 16.8297C47.4287 16.8297 46.9896 16.6708 46.6869 16.3528C46.3841 16.0349 46.2328 15.5884 46.2328 15.013V2.22871C46.2328 1.65346 46.3841 1.20687 46.6869 0.888969C46.9896 0.571062 47.4287 0.412109 48.0039 0.412109C48.5641 0.412109 48.9955 0.571062 49.2983 0.888969C49.601 1.20687 49.7525 1.65346 49.7525 2.22871V7.04271H57.2005V2.22871C57.2005 1.65346 57.3519 1.20687 57.6547 0.888969C57.9574 0.571062 58.3889 0.412109 58.9489 0.412109C59.5243 0.412109 59.9633 0.571062 60.2661 0.888969C60.5687 1.20687 60.7202 1.65346 60.7202 2.22871V15.013C60.7202 15.5884 60.5687 16.0349 60.2661 16.3528C59.9633 16.6708 59.5243 16.8297 58.9489 16.8297C58.3889 16.8297 57.9574 16.6708 57.6547 16.3528C57.3519 16.0349 57.2005 15.5884 57.2005 15.013V9.97199H49.7525V15.013C49.7525 15.5884 49.601 16.0349 49.2983 16.3528C49.0107 16.6708 48.5791 16.8297 48.0039 16.8297ZM67.6067 16.8751C66.7893 16.8751 66.0551 16.7161 65.4041 16.3982C64.7532 16.0804 64.246 15.6489 63.8827 15.1038C63.5195 14.5589 63.3377 13.9458 63.3377 13.2646C63.3377 12.4471 63.5497 11.8037 63.9736 11.3345C64.3975 10.85 65.0863 10.5094 66.0399 10.3126C66.9937 10.1007 68.2577 9.9947 69.8321 9.9947H71.0356V11.7659H69.8549C69.0827 11.7659 68.4545 11.8113 67.9701 11.9021C67.5008 11.9778 67.1602 12.1141 66.9482 12.3109C66.7514 12.5077 66.6531 12.7802 66.6531 13.1283C66.6531 13.5522 66.7969 13.9004 67.0845 14.1729C67.3873 14.4453 67.8187 14.5816 68.3789 14.5816C68.8178 14.5816 69.2039 14.4833 69.5369 14.2865C69.8851 14.0745 70.1576 13.7944 70.3544 13.4462C70.5512 13.0829 70.6497 12.6742 70.6497 12.22V9.60867C70.6497 8.94258 70.4982 8.4733 70.1955 8.2008C69.8927 7.91318 69.378 7.76936 68.6513 7.76936C68.2426 7.76936 67.796 7.82235 67.3116 7.92831C66.8423 8.01914 66.32 8.1781 65.7448 8.40517C65.4117 8.55655 65.1165 8.59439 64.8592 8.51871C64.6018 8.42788 64.405 8.2765 64.2688 8.06456C64.1325 7.83748 64.0644 7.59527 64.0644 7.33791C64.0644 7.06542 64.14 6.80808 64.2915 6.56587C64.4428 6.30851 64.6926 6.11927 65.0408 5.99817C65.7523 5.71055 66.4185 5.51374 67.0392 5.40777C67.6749 5.30181 68.2577 5.24882 68.7876 5.24882C69.9532 5.24882 70.907 5.42291 71.6488 5.7711C72.4056 6.10414 72.9733 6.62642 73.3518 7.33791C73.7302 8.03428 73.9195 8.93501 73.9195 10.0401V15.0812C73.9195 15.6413 73.7833 16.0728 73.5107 16.3755C73.2383 16.6783 72.8447 16.8297 72.33 16.8297C71.8153 16.8297 71.414 16.6783 71.1264 16.3755C70.854 16.0728 70.7177 15.6413 70.7177 15.0812V14.241L70.8767 14.3773C70.7858 14.892 70.589 15.3386 70.2863 15.717C69.9987 16.0804 69.6278 16.368 69.1736 16.5798C68.7195 16.7766 68.1971 16.8751 67.6067 16.8751ZM78.3529 16.8297C77.8685 16.8297 77.4976 16.6934 77.2403 16.421C76.9829 16.1334 76.8542 15.7322 76.8542 15.2174V7.17896C76.8542 6.77022 76.9072 6.42962 77.0132 6.15713C77.1192 5.86949 77.2933 5.65756 77.5354 5.52131C77.7777 5.36993 78.0728 5.29424 78.4211 5.29424C78.7541 5.29424 79.0342 5.34723 79.2612 5.45319C79.4883 5.55915 79.6851 5.70297 79.8517 5.88464C80.0182 6.0663 80.1695 6.27823 80.3058 6.52045L83.3259 11.5615L86.3233 6.54316C86.4444 6.31608 86.5807 6.11171 86.732 5.93005C86.8986 5.74839 87.0954 5.59701 87.3225 5.4759C87.5646 5.35479 87.8524 5.29424 88.1853 5.29424C88.7303 5.29424 89.1315 5.46076 89.3889 5.79381C89.6462 6.11171 89.7748 6.57343 89.7748 7.17896V15.2174C89.7748 15.7322 89.6462 16.1334 89.3889 16.421C89.1315 16.6934 88.753 16.8297 88.2535 16.8297C87.7841 16.8297 87.4133 16.6934 87.1409 16.421C86.8834 16.1334 86.7548 15.7322 86.7548 15.2174V9.44973H87.3225L84.4613 14.2183C84.3553 14.3848 84.2191 14.5438 84.0526 14.6952C83.886 14.8465 83.6438 14.9222 83.3259 14.9222C83.008 14.9222 82.7659 14.8465 82.5993 14.6952C82.4328 14.5438 82.289 14.3848 82.1678 14.2183L79.284 9.44973H79.8517V15.2174C79.8517 15.7322 79.7229 16.1334 79.4656 16.421C79.2082 16.6934 78.8373 16.8297 78.3529 16.8297ZM104.887 16.8751C103.57 16.8751 102.434 16.6405 101.48 16.1712C100.542 15.6867 99.8152 15.013 99.3005 14.1502C98.8009 13.2722 98.5511 12.2428 98.5511 11.062C98.5511 9.91144 98.7934 8.90474 99.2778 8.04185C99.7622 7.16383 100.436 6.4826 101.299 5.99817C102.177 5.49861 103.168 5.24882 104.273 5.24882C105.076 5.24882 105.802 5.38507 106.453 5.65756C107.104 5.9149 107.664 6.29337 108.134 6.79293C108.603 7.27736 108.959 7.87532 109.201 8.58683C109.443 9.2832 109.564 10.0628 109.564 10.9257C109.564 11.2133 109.474 11.4328 109.292 11.5842C109.11 11.7205 108.845 11.7886 108.497 11.7886H101.367V10.0174H107.089L106.726 10.3353C106.726 9.71465 106.635 9.19994 106.453 8.7912C106.272 8.36733 106.007 8.04943 105.659 7.83748C105.326 7.62554 104.909 7.51957 104.41 7.51957C103.85 7.51957 103.373 7.64825 102.979 7.9056C102.585 8.16296 102.283 8.53385 102.071 9.01828C101.859 9.5027 101.753 10.0855 101.753 10.7668V10.9484C101.753 12.0989 102.018 12.9467 102.548 13.4917C103.093 14.0366 103.895 14.3091 104.955 14.3091C105.318 14.3091 105.734 14.2637 106.204 14.1729C106.673 14.0821 107.112 13.9382 107.521 13.7414C107.869 13.5749 108.179 13.5219 108.452 13.5825C108.724 13.6279 108.936 13.749 109.087 13.9458C109.239 14.1426 109.322 14.3697 109.337 14.6271C109.368 14.8844 109.315 15.1418 109.178 15.3991C109.042 15.6413 108.815 15.8457 108.497 16.0121C107.982 16.2999 107.4 16.5118 106.749 16.648C106.113 16.7994 105.492 16.8751 104.887 16.8751ZM117.341 16.8751C116.13 16.8751 115.07 16.6405 114.162 16.1712C113.268 15.6867 112.58 15.0055 112.095 14.1275C111.611 13.2495 111.368 12.2125 111.368 11.0165C111.368 10.1234 111.505 9.32104 111.777 8.60954C112.05 7.89803 112.443 7.2925 112.958 6.79293C113.488 6.29337 114.124 5.9149 114.866 5.65756C115.607 5.38507 116.432 5.24882 117.341 5.24882C117.81 5.24882 118.309 5.30937 118.839 5.43048C119.369 5.53645 119.891 5.72568 120.406 5.99817C120.709 6.13442 120.913 6.33122 121.019 6.58857C121.14 6.83078 121.186 7.08813 121.155 7.36062C121.125 7.61798 121.027 7.85262 120.86 8.06456C120.709 8.26135 120.512 8.3976 120.27 8.4733C120.028 8.53385 119.755 8.48843 119.452 8.33705C119.165 8.17052 118.862 8.04943 118.544 7.97373C118.241 7.89803 117.954 7.86019 117.681 7.86019C117.227 7.86019 116.826 7.93589 116.478 8.08727C116.13 8.22351 115.834 8.42788 115.592 8.70037C115.365 8.95772 115.183 9.2832 115.047 9.67679C114.926 10.0704 114.866 10.5245 114.866 11.0392C114.866 12.0384 115.108 12.8256 115.592 13.4008C116.092 13.961 116.788 14.241 117.681 14.241C117.954 14.241 118.241 14.2107 118.544 14.1502C118.847 14.0745 119.15 13.9534 119.452 13.7869C119.755 13.6355 120.028 13.5976 120.27 13.6733C120.512 13.749 120.701 13.8928 120.838 14.1048C120.989 14.3015 121.072 14.5361 121.087 14.8087C121.118 15.066 121.072 15.3234 120.951 15.5807C120.845 15.823 120.648 16.0121 120.361 16.1484C119.846 16.4058 119.331 16.5875 118.817 16.6934C118.302 16.8146 117.81 16.8751 117.341 16.8751ZM127.199 16.8297C126.654 16.8297 126.23 16.6783 125.927 16.3755C125.64 16.0728 125.496 15.6413 125.496 15.0812V8.15539H123.043C122.09 8.15539 121.613 7.70881 121.613 6.81564C121.613 6.39176 121.734 6.0663 121.976 5.83922C122.233 5.59701 122.589 5.4759 123.043 5.4759H131.354C132.323 5.4759 132.808 5.92248 132.808 6.81564C132.808 7.25466 132.679 7.5877 132.422 7.81477C132.179 8.04185 131.824 8.15539 131.354 8.15539H128.925V15.0812C128.925 15.6413 128.781 16.0728 128.493 16.3755C128.206 16.6783 127.774 16.8297 127.199 16.8297ZM135.924 16.6253C135.394 16.6253 134.985 16.4815 134.698 16.1939C134.41 15.9063 134.266 15.4899 134.266 14.945V7.02001C134.266 6.44475 134.41 6.01331 134.698 5.72568C135 5.43806 135.432 5.29424 135.992 5.29424C136.537 5.29424 136.953 5.43806 137.241 5.72568C137.544 6.01331 137.695 6.44475 137.695 7.02001V9.01828H140.375C141.873 9.01828 143.001 9.33619 143.758 9.97199C144.53 10.5927 144.916 11.5161 144.916 12.7423C144.916 13.5144 144.727 14.1956 144.348 14.786C143.97 15.3613 143.44 15.8153 142.759 16.1484C142.093 16.4663 141.298 16.6253 140.375 16.6253H135.924ZM137.695 14.4226H139.784C140.405 14.4226 140.889 14.2865 141.237 14.0139C141.601 13.7414 141.783 13.3327 141.783 12.7877C141.783 12.2428 141.608 11.8416 141.26 11.5842C140.912 11.3269 140.42 11.1982 139.784 11.1982H137.695V14.4226ZM46.6642 37.9705C46.21 37.9705 45.8542 37.8343 45.5969 37.5618C45.3395 37.3045 45.2109 36.9336 45.2109 36.4492V33.7469C45.2109 32.7024 45.7256 32.1801 46.755 32.1801H48.1402L46.0965 32.9068C46.4749 32.3921 46.7702 31.8622 46.9821 31.3172C47.2092 30.7571 47.3682 30.1213 47.459 29.4098C47.565 28.6831 47.6178 27.8051 47.6178 26.7757V25.595C47.6178 24.9743 47.7768 24.4974 48.0947 24.1643C48.4278 23.8312 48.9047 23.6648 49.5254 23.6648H54.839C55.4595 23.6648 55.9364 23.8312 56.2695 24.1643C56.6026 24.4974 56.7691 24.9743 56.7691 25.595V33.7923L55.1568 32.1801H57.0643C57.5639 32.1801 57.9423 32.3163 58.1996 32.5889C58.4722 32.8462 58.6083 33.2322 58.6083 33.7469V36.4492C58.6083 37.4634 58.1239 37.9705 57.1551 37.9705C56.6858 37.9705 56.3225 37.8343 56.0652 37.5618C55.8229 37.3045 55.7018 36.9336 55.7018 36.4492V34.8142H48.0947V36.4492C48.0947 37.4634 47.6178 37.9705 46.6642 37.9705ZM49.5707 32.2028H53.5673V26.2762H50.5245V27.6385C50.5245 28.4712 50.4412 29.2963 50.2747 30.1138C50.1082 30.9311 49.8735 31.6276 49.5707 32.2028ZM66.2792 35.064C64.9622 35.064 63.8268 34.8294 62.8732 34.36C61.9346 33.8756 61.2079 33.2019 60.6932 32.3391C60.1936 31.461 59.9438 30.4317 59.9438 29.2508C59.9438 28.1004 60.1861 27.0936 60.6705 26.2307C61.1549 25.3527 61.8286 24.6715 62.6914 24.1871C63.5695 23.6874 64.5611 23.4378 65.6662 23.4378C66.4685 23.4378 67.1952 23.5739 67.8461 23.8464C68.4971 24.1038 69.0571 24.4822 69.5265 24.9818C69.9957 25.4662 70.3515 26.0642 70.5937 26.7757C70.8359 27.4721 70.957 28.2517 70.957 29.1145C70.957 29.4023 70.8662 29.6217 70.6846 29.7732C70.5029 29.9093 70.238 29.9775 69.8898 29.9775H62.7597V28.2062H68.4819L68.1186 28.5242C68.1186 27.9036 68.0278 27.3889 67.8461 26.98C67.6644 26.5562 67.3995 26.2383 67.0514 26.0264C66.7183 25.8144 66.3019 25.7085 65.8025 25.7085C65.2423 25.7085 64.7654 25.8371 64.3718 26.0945C63.9782 26.3518 63.6755 26.7227 63.4635 27.2071C63.2516 27.6915 63.1456 28.2744 63.1456 28.9557V29.1373C63.1456 30.2879 63.4106 31.1356 63.9404 31.6806C64.4853 32.2255 65.2878 32.498 66.3474 32.498C66.7108 32.498 67.127 32.4526 67.5963 32.3618C68.0655 32.2709 68.5046 32.1271 68.9133 31.9304C69.2615 31.7639 69.5718 31.7109 69.8444 31.7714C70.1169 31.8169 70.3288 31.9379 70.4801 32.1347C70.6316 32.3316 70.7149 32.5586 70.7299 32.816C70.7602 33.0733 70.7072 33.3307 70.5711 33.588C70.4348 33.8301 70.2077 34.0346 69.8898 34.201C69.375 34.4888 68.7923 34.7007 68.1413 34.8369C67.5055 34.9883 66.8848 35.064 66.2792 35.064ZM82.4574 35.0185C81.8972 35.0185 81.4658 34.8672 81.163 34.5644C80.8754 34.2617 80.7315 33.8301 80.7315 33.2701V26.3215H77.825V27.5705C77.825 28.5393 77.7568 29.4174 77.6207 30.2046C77.4844 30.9917 77.2801 31.6881 77.0075 32.2936C76.7351 32.8992 76.3868 33.4139 75.9629 33.8378C75.539 34.2465 75.032 34.5719 74.4416 34.8142C74.048 34.9807 73.6922 35.0261 73.3743 34.9505C73.0564 34.8747 72.7915 34.7309 72.5795 34.519C72.3827 34.307 72.2541 34.0572 72.1936 33.7696C72.1481 33.4669 72.1859 33.1716 72.3071 32.884C72.4432 32.5812 72.6855 32.3239 73.0337 32.112C73.3668 31.9304 73.6393 31.6957 73.8512 31.408C74.063 31.1204 74.2296 30.7798 74.3508 30.3862C74.4719 29.9926 74.5551 29.5612 74.6005 29.0919C74.6611 28.6075 74.6914 28.0624 74.6914 27.4569V25.595C74.6914 24.9743 74.8503 24.4974 75.1682 24.1643C75.5012 23.8312 75.9781 23.6648 76.5988 23.6648H82.253C82.8737 23.6648 83.3429 23.8312 83.6608 24.1643C83.9939 24.4974 84.1604 24.9743 84.1604 25.595V33.2701C84.1604 33.8301 84.0091 34.2617 83.7063 34.5644C83.4187 34.8672 83.0023 35.0185 82.4574 35.0185ZM92.5248 35.064C91.3288 35.064 90.2843 34.8294 89.3912 34.36C88.5131 33.8907 87.8319 33.2171 87.3475 32.3391C86.863 31.461 86.6208 30.424 86.6208 29.2281C86.6208 28.335 86.757 27.5327 87.0296 26.8212C87.302 26.1097 87.6956 25.504 88.2103 25.0046C88.7402 24.4899 89.3684 24.1038 90.0951 23.8464C90.8217 23.5739 91.6317 23.4378 92.5248 23.4378C93.7207 23.4378 94.7577 23.6724 95.6358 24.1416C96.5289 24.6109 97.2176 25.277 97.7021 26.1399C98.2017 27.0028 98.4515 28.0322 98.4515 29.2281C98.4515 30.1364 98.3077 30.9464 98.0201 31.6579C97.7475 32.3693 97.3539 32.9825 96.8392 33.4972C96.3245 34.0119 95.6963 34.4055 94.9545 34.6779C94.2278 34.9353 93.418 35.064 92.5248 35.064ZM92.5248 32.498C93.0244 32.498 93.4558 32.3769 93.8192 32.1347C94.1824 31.8925 94.4701 31.5368 94.682 31.0674C94.894 30.583 94.9999 29.97 94.9999 29.2281C94.9999 28.1231 94.7728 27.3131 94.3186 26.7984C93.8645 26.2685 93.2665 26.0037 92.5248 26.0037C92.0403 26.0037 91.6089 26.1172 91.2305 26.3443C90.8672 26.5714 90.5795 26.927 90.3675 27.4115C90.1707 27.8808 90.0724 28.4863 90.0724 29.2281C90.0724 30.3332 90.2995 31.1582 90.7536 31.7033C91.2078 32.2331 91.7982 32.498 92.5248 32.498Z" fill="#333333"/>
<g clip-path="url(#clip0_394_15953)">
<path d="M21.223 15.2266L24.9923 19.2159C18.9518 25.0631 9.83905 33.5551 5.85274 37.3335C4.75396 38.3749 3.02724 38.3192 1.98987 37.2163C0.956677 36.1179 0.998196 34.3936 2.09011 33.3537C5.9765 29.6528 14.7853 21.2354 21.223 15.2266Z" fill="#333333"/>
<path d="M7.52344 20.0253L11.1718 15.9648C14.9422 19.3953 20.5174 24.4248 23.4872 27.1013C24.613 28.1162 24.7008 29.8511 23.6874 30.9788C22.6803 32.0996 20.9635 32.198 19.8414 31.1929C16.9329 28.5884 11.7295 24.0066 7.52344 20.0253Z" fill="#333333"/>
<path fill-rule="evenodd" clip-rule="evenodd" d="M6.19623 8.32018C6.19623 6.71036 7.37953 5.50276 9.03931 5.50276C10.0249 5.50276 11.0542 5.98966 11.6977 6.73845L13.7724 9.15279L15.847 11.5671L17.9217 9.15282L19.9964 6.73849L19.9965 6.73843C20.6399 5.98965 21.6692 5.50276 22.6548 5.50276C24.3146 5.50276 25.4979 6.71038 25.4979 8.32018C25.4979 9.35636 25.0777 10.7363 23.1955 13.0363C22.6181 13.7419 21.958 14.4699 21.2101 15.2399C21.2144 15.236 21.2186 15.2321 21.2228 15.2282L24.9914 19.2176C25.8957 18.2925 26.7118 17.3982 27.4295 16.5211C29.6905 13.7584 30.9754 11.1673 30.9754 8.32018C30.9754 3.65327 27.3163 0.00976562 22.6548 0.00976562C20.0232 0.00976562 17.4966 1.233 15.8471 3.15264V3.15262C14.1975 1.23299 11.6708 0.00976562 9.03931 0.00976562C4.37775 0.00976562 0.71875 3.65329 0.71875 8.32018C0.71875 11.1672 2.00352 13.7584 4.26443 16.5211L4.26447 16.5212C5.19088 17.6532 6.28585 18.8111 7.52127 20.0272L11.1707 15.9663C10.9585 15.7734 11.3732 16.1505 11.1707 15.9663C9.86156 14.6992 9.39265 14.1288 8.4986 13.0363C6.61638 10.7364 6.19623 9.35641 6.19623 8.32018Z" fill="#DE511B"/>
</g>
<defs>
<clipPath id="clip0_394_15953">
<rect width="30.2674" height="38.083" fill="white" transform="translate(0.710938)"/>
</clipPath>
</defs>
</svg>
