<svg width="21" height="21" viewBox="0 0 21 21" fill="none" xmlns="http://www.w3.org/2000/svg">
<path d="M18.375 3.9375H2.625C2.2769 3.9375 1.94306 4.07578 1.69692 4.32192C1.45078 4.56806 1.3125 4.9019 1.3125 5.25V15.75C1.3125 16.0981 1.45078 16.4319 1.69692 16.6781C1.94306 16.9242 2.2769 17.0625 2.625 17.0625H18.375C18.7231 17.0625 19.0569 16.9242 19.3031 16.6781C19.5492 16.4319 19.6875 16.0981 19.6875 15.75V5.25C19.6875 4.9019 19.5492 4.56806 19.3031 4.32192C19.0569 4.07578 18.7231 3.9375 18.375 3.9375ZM11.1562 14.4375H9.84375C9.6697 14.4375 9.50278 14.3684 9.37971 14.2453C9.25664 14.1222 9.1875 13.9553 9.1875 13.7812C9.1875 13.6072 9.25664 13.4403 9.37971 13.3172C9.50278 13.1941 9.6697 13.125 9.84375 13.125H11.1562C11.3303 13.125 11.4972 13.1941 11.6203 13.3172C11.7434 13.4403 11.8125 13.6072 11.8125 13.7812C11.8125 13.9553 11.7434 14.1222 11.6203 14.2453C11.4972 14.3684 11.3303 14.4375 11.1562 14.4375ZM16.4062 14.4375H13.7812C13.6072 14.4375 13.4403 14.3684 13.3172 14.2453C13.1941 14.1222 13.125 13.9553 13.125 13.7812C13.125 13.6072 13.1941 13.4403 13.3172 13.3172C13.4403 13.1941 13.6072 13.125 13.7812 13.125H16.4062C16.5803 13.125 16.7472 13.1941 16.8703 13.3172C16.9934 13.4403 17.0625 13.6072 17.0625 13.7812C17.0625 13.9553 16.9934 14.1222 16.8703 14.2453C16.7472 14.3684 16.5803 14.4375 16.4062 14.4375ZM2.625 7.21875V5.25H18.375V7.21875H2.625Z" fill="white"/>
</svg>
