<svg width="80" height="80" viewBox="0 0 80 80" fill="none" xmlns="http://www.w3.org/2000/svg">
<path fill-rule="evenodd" clip-rule="evenodd" d="M0 40C0 17.9086 17.9086 0 40 0C62.0914 0 80 17.9086 80 40C80 62.0914 62.0914 80 40 80C17.9086 80 0 62.0914 0 40ZM34.622 54.6217C35.8664 55.8661 37.9109 55.8217 39.1109 54.5328L58.7553 33.1995C59.822 31.9995 59.7331 30.1773 58.5776 29.1106C57.422 28.0439 55.5553 28.0884 54.4887 29.2884L36.7553 48.5773L26.0887 37.9106C24.9776 36.7995 23.1109 36.7995 21.9998 37.9106C20.8887 39.0217 20.8887 40.8884 21.9998 41.9995L34.622 54.6217Z" fill="#7599E2"/>
</svg>
